<?xml version="1.0" encoding="UTF-8" standalone="no"?>
<!-- Created with Inkscape (http://www.inkscape.org/) -->

<svg
   xmlns:dc="http://purl.org/dc/elements/1.1/"
   xmlns:cc="http://creativecommons.org/ns#"
   xmlns:rdf="http://www.w3.org/1999/02/22-rdf-syntax-ns#"
   xmlns:svg="http://www.w3.org/2000/svg"
   xmlns="http://www.w3.org/2000/svg"
   xmlns:sodipodi="http://sodipodi.sourceforge.net/DTD/sodipodi-0.dtd"
   xmlns:inkscape="http://www.inkscape.org/namespaces/inkscape"
   version="1.0"
   width="360"
   height="260"
   id="svg2"
   inkscape:version="0.48.1 "
   sodipodi:docname="All_Blacks_logo.svg">
  <metadata
     id="metadata3085">
    <rdf:RDF>
      <cc:Work
         rdf:about="">
        <dc:format>image/svg+xml</dc:format>
        <dc:type
           rdf:resource="http://purl.org/dc/dcmitype/StillImage" />
      </cc:Work>
    </rdf:RDF>
  </metadata>
  <sodipodi:namedview
     pagecolor="#ffffff"
     bordercolor="#666666"
     borderopacity="1"
     objecttolerance="10"
     gridtolerance="10"
     guidetolerance="10"
     inkscape:pageopacity="0"
     inkscape:pageshadow="2"
     inkscape:window-width="1024"
     inkscape:window-height="712"
     id="namedview3083"
     showgrid="false"
     inkscape:zoom="0.99758621"
     inkscape:cx="322.52852"
     inkscape:cy="215.58935"
     inkscape:window-x="-4"
     inkscape:window-y="-4"
     inkscape:window-maximized="1"
     inkscape:current-layer="svg2" />
  <defs
     id="defs5" />
  <rect
     id="rect2169"
     style="fill:#000000;fill-opacity:1;fill-rule:nonzero;stroke:none"
     y="-4.1980853"
     x="-9.4365892"
     height="275"
     width="375" />
  <g
     id="g2161"
     style="fill:#ffffff;fill-opacity:1"
     transform="matrix(0.5859375,0,0,0.5859375,-126.24935,-92.967039)">
    <path
       inkscape:connector-curvature="0"
       id="path2167"
       style="fill:#ffffff;fill-opacity:1"
       d="m 780.94892,588.69372 c 2.44691,-1.20655 5.79678,-3.89194 7.44416,-5.96754 2.64423,-3.33158 3.00177,-4.57107 3.05107,-10.57708 0.0484,-5.89429 -0.30403,-7.27518 -2.6377,-10.33545 -3.02736,-3.96993 -7.14866,-6.19476 -16.3491,-8.82585 -10.761,-3.07737 -11.95735,-3.92793 -11.95735,-8.50127 0,-3.98428 0.002,-3.98653 4,-3.98653 3.62026,0 4.03004,0.26107 4.31642,2.75 l 0.31642,2.75 10.82729,0 10.82728,0 -0.95468,-4.25 c -1.17472,-5.22958 -3.99388,-8.41996 -9.71051,-10.98915 -8.8872,-3.99413 -27.45488,-3.27744 -35.07011,1.35366 -8.57006,5.21176 -10.46304,20.89308 -3.32113,27.51198 1.4666,1.35919 6.89523,3.76755 12.49055,5.54129 C 766.13875,568.9456 769,570.92135 769,575.37258 769,579.32804 767.46548,581 763.83518,581 760.89178,581 759,578.67821 759,575.06574 759,573.09669 758.45651,573 747.38871,573 l -11.61129,0 0.69525,3.75 c 1.01525,5.47595 4.04541,9.79271 8.29309,11.81432 8.27085,3.93635 28.31716,4.00805 36.18316,0.1294 z m -134.65114,0.29606 c 2.95504,-1.10563 6.32544,-3.02427 7.48978,-4.26365 C 656.68497,581.64199 659,575.78204 659,571.53212 L 659,568 l -10.75,0.003 -10.75,0.003 -0.0258,4.47257 c -0.0142,2.45992 -0.56166,5.00848 -1.21666,5.66348 -1.64769,1.64769 -7.24035,1.49612 -8.33024,-0.22575 -0.4932,-0.77917 -0.90361,-8.92203 -0.91203,-18.09524 -0.0127,-13.84321 0.25183,-16.94572 1.55612,-18.25 3.60214,-3.60214 8.30442,-0.91591 9.12657,5.21366 l 0.56534,4.21491 10.36833,0 10.36833,0 0,-3.78811 c 0,-5.95021 -3.75593,-12.29852 -9,-15.21189 -4.17778,-2.32099 -5.46667,-2.5 -18,-2.5 -12.3691,0 -13.84615,0.19836 -17.63211,2.36789 -5.00596,2.86863 -7.78554,7.56356 -9.41151,15.89678 -1.36687,7.00527 -0.79894,23.45794 1.01873,29.51266 1.67961,5.59482 6.45888,10.48454 11.87842,12.15295 7.20097,2.21682 21.95249,1.98838 28.44425,-0.4405 z M 255.55227,584.5 l 0.67482,-4.5 6.82518,0 6.82518,0 0.67482,4.5 0.67482,4.5 11.28114,0 11.28115,0 -0.79338,-3.25 c -0.43635,-1.7875 -2.86352,-11.125 -5.39371,-20.75 -2.53019,-9.625 -5.59332,-21.4375 -6.80696,-26.25 l -2.20661,-8.75 -18.29436,0 C 245.41905,530 242,530.25754 242,531.37803 c 0,0.75791 0.98427,2.03156 2.18726,2.83031 l 2.18727,1.45229 -2.18837,7.91969 c -2.36434,8.5565 -10.57585,39.49267 -11.4587,43.16968 -0.53611,2.23286 -0.45381,2.25 10.80489,2.25 l 11.3451,0 0.67482,-4.5 z m 2.88893,-16.75 c 0.20814,-0.6875 1.1624,-6.2 2.12058,-12.25 0.95818,-6.05 2.03006,-11.33379 2.38195,-11.74176 0.35189,-0.40797 1.43855,3.86703 2.41479,9.5 0.97625,5.63297 2.00571,11.47926 2.2877,12.99176 0.50421,2.70453 0.42923,2.75 -4.53538,2.75 -3.57362,0 -4.93754,-0.3651 -4.66964,-1.25 z M 344,582.5 l 0,-6.5 -10,0 -10,0 0,-23 0,-23 -5.25,0.006 c -2.8875,0.003 -8.9625,0.295 -13.5,0.64822 -8.37608,0.65204 -10.37655,1.93856 -6,3.85866 2.24271,0.98393 2.25086,1.07378 2.51633,27.73713 l 0.26634,26.75 20.98366,0 20.98367,0 0,-6.5 z m 49,0 0,-6.5 -10,0 -10,0 0,-23 0,-23 -4.75,0.006 c -2.6125,0.003 -8.4625,0.295 -13,0.64822 -8.42355,0.65573 -10.06117,1.7336 -6.25,4.11372 1.91824,1.19796 2,2.33202 2,27.74054 L 351,589 l 21,0 21,0 0,-6.5 z m 79.29455,5.0214 c 12.32683,-5.15048 10.22835,-24.51231 -2.92413,-26.97973 -3.90532,-0.73264 -3.73089,-2.01958 0.38531,-2.84282 7.12258,-1.42451 11.29139,-9.32262 9.10337,-17.24698 -2.41709,-8.75396 -6.60847,-9.95826 -34.55041,-9.92722 -12.20523,0.0136 -22.5544,0.38773 -22.99817,0.8315 -0.44378,0.44377 0.42982,1.70771 1.94131,2.80876 l 2.74817,2.0019 0,26.4166 0,26.41659 21.37788,0 c 16.60283,0 22.16831,-0.33027 24.91667,-1.4786 z M 448,571.5 l 0,-6.5 3.8,0 c 4.66584,0 6.2,1.41044 6.2,5.7 0,4.15926 -3.01167,7.3 -7,7.3 l -3,0 0,-6.5 z m 0,-23.5 0,-6.12073 3.71858,0.31036 c 5.04162,0.42079 7.25449,4.0014 5.17129,8.36757 -1.12883,2.36591 -2.13781,3.00364 -5.14697,3.25317 L 448,554.12073 448,548 z m 85,34.5 0,-6.5 -10,0 -10,0 0,-23 0,-23 -5.25,0.006 C 496.23863,530.01914 486,531.26294 486,532.64822 486,533.3917 486.68614,534 487.52475,534 490.40459,534 491,539.15105 491,564.0651 l 0,24.9349 21,0 21,0 0,-6.5 z m 29.28768,1.70585 0.84748,-4.29415 6.68242,0.29415 6.68242,0.29415 0.5,4 0.5,4 11.25,0.28275 c 12.62196,0.31723 12.15548,0.66703 9.80339,-7.35125 -0.79564,-2.71232 -3.288,-12.1315 -5.53858,-20.9315 -2.25058,-8.8 -4.49929,-17.35 -4.99713,-19 -0.49785,-1.65 -1.39784,-4.9125 -1.99997,-7.25 l -1.0948,-4.25 -17.96145,0 c -18.95319,0 -20.4639,0.41286 -15.8781,4.33934 1.30447,1.11693 1.8442,2.40705 1.44367,3.45082 -0.35183,0.91684 -1.48419,4.82663 -2.51636,8.68841 -1.03217,3.86179 -2.77668,10.39643 -3.87668,14.52143 -1.1,4.125 -2.98872,11.1 -4.19714,15.5 -1.20843,4.4 -2.41896,9.02776 -2.69006,10.2839 l -0.49291,2.2839 11.34316,-0.2839 11.34316,-0.2839 0.84748,-4.29415 z M 565,568.42199 c 0,-2.35898 4.26365,-24.0764 4.84091,-24.65774 0.40182,-0.40466 1.54281,4.50241 2.53554,10.90459 0.99273,6.40218 2.03729,12.24576 2.32124,12.98574 C 575.08871,568.67357 573.9749,569 570.10699,569 567.29814,569 565,568.7399 565,568.42199 z m 126,12.03256 c 0,-7.83576 0.21266,-8.75812 2.56061,-11.10607 1.40833,-1.40833 2.69171,-2.40037 2.85195,-2.20454 0.16024,0.19583 3.09934,5.19356 6.53133,11.10606 l 6.23999,10.75 11.40806,0 C 726.86637,589 732,588.7782 732,588.50712 c 0,-0.27109 -4.725,-8.38483 -10.5,-18.03054 -5.775,-9.64571 -10.5,-17.73575 -10.5,-17.97785 0,-0.24211 5.0625,-5.39143 11.25,-11.44293 L 733.5,530.05307 720.43493,530.02653 707.36986,530 699.43493,538.1352 691.5,546.27041 691.20956,538.1352 690.91912,530 677.45956,530 C 669.58047,530 664,530.39576 664,530.95455 c 0,0.525 1.125,2.07954 2.5,3.45454 l 2.5,2.5 0,26.04546 0,26.04545 11,0 11,0 0,-8.54545 z m 119.68618,-54.40478 c 4.407,-2.68714 5.62727,-5.43581 5.0554,-11.38736 -0.38818,-4.03986 -1.05877,-5.50539 -3.36322,-7.35009 -5.62325,-4.50138 -14.23954,-3.84685 -18.36272,1.39493 -2.23739,2.84437 -2.74903,10.05388 -0.95182,13.412 1.59411,2.97863 6.98402,5.87327 10.93618,5.87327 1.925,0 4.93378,-0.87423 6.68618,-1.94275 z m -9.41625,-0.77845 c -5.97631,-1.08588 -8.44524,-11.18692 -3.85605,-15.77611 3.27616,-3.27616 6.73494,-3.98673 10.33756,-2.12374 3.6723,1.89901 5.68882,6.4682 4.84342,10.97458 -0.9848,5.24941 -5.46616,7.98979 -11.32493,6.92527 z M 802,519.5 c 0,-1.375 0.37777,-2.5 0.83948,-2.5 0.46172,0 1.35207,1.125 1.97857,2.5 0.62649,1.375 1.61455,2.5 2.19569,2.5 0.73478,0 0.74131,-0.58918 0.0214,-1.93426 C 805.5739,517.33531 805.74838,516 807.56642,516 c 1.11887,0 1.47602,-0.78573 1.25,-2.75 -0.28977,-2.51837 -0.71651,-2.77567 -5.06642,-3.05479 l -4.75,-0.30479 0,6.05479 c 0,4.71537 0.33183,6.05479 1.5,6.05479 0.93333,0 1.5,-0.94444 1.5,-2.5 z m 0,-6.5 c 0,-1.64634 0.51831,-2.06549 2.25,-1.81955 1.2375,0.17575 2.25,0.99455 2.25,1.81955 0,0.825 -1.0125,1.6438 -2.25,1.81955 C 802.51831,515.06549 802,514.64634 802,513 z M 289.9143,465.98022 c 6.37213,-6.33587 14.87818,-14.17328 18.90233,-17.41647 6.16256,-4.9666 7.22534,-6.26038 6.73791,-8.20247 -0.4824,-1.92204 -0.28546,-2.17544 1.18337,-1.52263 6.29195,2.79642 10.49232,4.68928 15.76209,7.10305 3.3,1.51153 20.82303,9.41407 38.94007,17.56118 18.11704,8.14712 34.05771,15.39279 35.42372,16.10148 2.23051,1.1572 2.84814,0.99945 6.05993,-1.54774 8.23922,-6.53435 8.79504,-5.407 -8.22151,-16.67563 -26.86325,-17.78927 -57.59615,-37.81364 -61.70705,-40.20591 -8.16012,-4.74866 -3.57786,-3.81724 9.75484,1.98284 7.5625,3.28989 20.05,8.68819 27.75,11.99622 7.7,3.30804 15.35,6.63079 17,7.3839 1.65,0.75311 10.70225,4.69056 20.11612,8.74989 l 17.11612,7.38061 5.12584,-4.58427 5.12583,-4.58427 -35.46912,-23 C 390.00677,413.85 372.23539,402.45378 370.02283,401.17508 367.81027,399.89637 366,398.46249 366,397.98867 c 0,-0.7353 11.0891,4.00362 31.5,13.4615 9.36385,4.33896 16.5585,7.54983 16.91704,7.54983 0.19677,0 5.02094,2.18249 10.72037,4.84998 5.69942,2.66749 15.61737,7.21895 22.03988,10.11435 l 11.67729,5.26438 4.57271,-3.28388 c 2.51499,-1.80613 4.56359,-3.54509 4.55244,-3.86435 -0.0174,-0.49862 -25.83618,-17.60918 -65.28811,-43.26759 -5.94461,-3.86621 -10.59647,-7.24137 -10.33747,-7.50037 0.25899,-0.259 4.8218,1.58973 10.13958,4.10829 5.31778,2.51855 9.80647,4.57919 9.97488,4.57919 0.16841,0 5.19437,2.28517 11.1688,5.07816 5.97442,2.79298 13.11259,6.1257 15.86259,7.40603 2.75,1.28034 9.44154,4.40099 14.87008,6.93477 5.42855,2.53379 14.09994,6.46926 19.26975,8.74548 10.12468,4.45782 9.34013,4.46059 17.16294,-0.0607 l 3.30277,-1.90889 -8.80277,-5.72767 C 476.58526,404.79496 451.19779,388.16319 429,373.58223 c -6.325,-4.15467 -10.97635,-7.56031 -10.33633,-7.56809 0.64002,-0.008 9.10331,3.81086 18.80731,8.48586 9.70401,4.675 17.80014,8.5 17.9914,8.5 0.19127,0 6.80297,3.10268 14.69269,6.89484 27.16497,13.05673 38.14178,18.10501 39.24193,18.04752 0.60665,-0.0317 3.24514,-1.07177 5.86331,-2.31125 l 4.76031,-2.25361 -22.03587,-14.43875 c -12.11972,-7.94131 -29.11186,-19.07723 -37.7603,-24.74648 -16.87303,-11.06066 -21.09361,-14.98306 -9.10519,-8.46192 4.05941,2.20812 22.23074,11.56903 40.38074,20.80202 18.15,9.23299 34.47619,17.61534 36.28042,18.62744 4.06429,2.27991 4.02629,2.28062 9.77078,-0.18176 l 4.71701,-2.02194 -22.8841,-15.07834 c -48.43326,-31.91267 -53.36691,-35.22831 -52.98613,-35.60908 0.21582,-0.21582 5.05206,2.0501 10.74721,5.03538 10.51884,5.51376 27.16392,14.13234 59.06272,30.58185 l 17.7079,9.13157 4.0421,-1.61732 c 2.22315,-0.88953 4.01406,-1.90597 3.9798,-2.25875 -0.0343,-0.35278 -16.66532,-11.64786 -36.95792,-25.10017 -20.29259,-13.45231 -36.72192,-24.63245 -36.50963,-24.84475 0.2123,-0.2123 5.48086,2.2986 11.70792,5.57976 6.22706,3.28117 18.07192,9.46797 26.32192,13.74845 8.25,4.28047 22.15791,11.58731 30.90647,16.23741 15.78573,8.39054 15.93564,8.44509 19.75,7.18624 2.11394,-0.69766 3.80286,-1.53395 3.75315,-1.85842 -0.0497,-0.32447 -8.71221,-6.35682 -19.25,-13.40523 -34.95836,-23.38258 -51.72481,-34.95285 -51.286,-35.39167 0.23858,-0.23858 3.28962,1.1127 6.78008,3.00285 3.49047,1.89015 18.9463,9.85369 34.3463,17.69675 15.4,7.84306 31.15,15.94682 35,18.00835 6.63463,3.5526 7.16963,3.67634 10.25,2.37076 1.7875,-0.75762 3.25,-1.59945 3.25,-1.87073 0,-0.27128 -5.7375,-4.24231 -12.75,-8.82451 -35.50702,-23.20145 -54.34916,-35.91068 -53.90222,-36.35762 0.27277,-0.27278 3.79361,1.28467 7.82409,3.46099 7.95852,4.29733 19.97947,10.60376 43.32813,22.7308 8.25,4.28497 17.42747,9.09344 20.39437,10.68551 5.25069,2.81757 5.48563,2.85137 8.82003,1.26909 l 3.42565,-1.62557 -8.37021,-5.66986 c -4.60362,-3.11842 -19.02912,-12.83836 -32.05667,-21.59988 -13.02754,-8.76152 -23.49547,-16.121 -23.26206,-16.35441 0.23341,-0.23341 3.93989,1.49365 8.23663,3.83791 4.29675,2.34426 9.61226,5.24377 11.81226,6.44336 2.2,1.19959 9.4,5.04318 16,8.54131 6.6,3.49813 15.15,8.06901 19,10.15751 17.0384,9.24278 17.03266,9.24057 20.39216,7.84902 l 3.08246,-1.2768 -2.23731,-1.71798 C 628.50679,345.105 615.575,336.33879 601,326.56942 586.425,316.80005 573.6,307.88244 572.5,306.75251 l -2,-2.05442 3.5,2.00791 c 1.925,1.10435 9.35,5.0644 16.5,8.80011 7.15,3.73571 15.25,8.00945 18,9.49722 4.74717,2.56823 12.44699,6.71215 26.1254,14.06026 l 6.1254,3.2906 3.07145,-1.94471 3.07145,-1.94471 -28.94803,-19.39787 c -15.92142,-10.66883 -28.76299,-19.58291 -28.53683,-19.80907 0.22616,-0.22616 15.38902,7.09955 33.69524,16.27935 32.25774,16.1759 33.36205,16.64322 35.81365,15.15568 1.39129,-0.84418 2.63794,-1.90792 2.77034,-2.36387 0.1324,-0.45594 -11.67155,-8.6632 -26.23099,-18.23834 -14.55944,-9.57515 -26.29244,-17.58862 -26.07334,-17.80773 0.21911,-0.2191 14.04451,6.42764 30.72313,14.77054 l 30.32476,15.1689 3.28418,-1.76865 c 3.87642,-2.08759 4.05952,-2.93414 1.03419,-4.78159 -10.24325,-6.25515 -22.10212,-13.57313 -26.25,-16.19859 -2.75,-1.74066 -8.93501,-5.59679 -13.74446,-8.56918 -4.80946,-2.97239 -8.3343,-5.5419 -7.83299,-5.71002 0.50131,-0.16812 4.43632,1.27517 8.74446,3.20731 C 649.4671,294.59077 685.96317,310 686.82176,310 c 0.45629,0 1.84666,-1.0826 3.08973,-2.40578 l 2.26011,-2.40578 -7.07349,-4.13114 c -3.89041,-2.27212 -9.66971,-5.57702 -12.84288,-7.34422 -18.86759,-10.5077 -28.25527,-16.04637 -27.86277,-16.43888 0.38963,-0.38962 24.77098,8.00754 31.60754,10.88594 1.375,0.57891 7.42382,2.82223 13.44183,4.98516 l 10.94182,3.93259 2.89289,-2.8929 2.8929,-2.89289 -22.75085,-11.56025 c -20.4609,-10.39668 -22.96059,-11.42839 -24.83471,-10.25018 -1.14614,0.72054 -3.15462,1.63074 -4.4633,2.02267 -2.76528,0.82815 -2.9796,3.40196 1.85721,-22.30455 1.79032,-9.51511 3.05284,-17.50249 2.80561,-17.74973 -0.24724,-0.24723 -3.78714,0.37062 -7.86646,1.37301 l -7.41694,1.82252 -0.26954,21.05818 -0.26954,21.05817 -4.72209,2.04407 c -2.59715,1.12424 -4.85613,1.91002 -5.01996,1.74619 -0.32133,-0.32133 0.29729,-4.25113 4.62395,-29.37356 2.79108,-16.2062 2.79626,-16.31727 0.73404,-15.74242 -1.14227,0.31841 -4.65636,0.86379 -7.80909,1.21195 l -5.73224,0.63303 -0.26776,23.53549 -0.26777,23.5355 -4.77964,1.96093 c -2.6288,1.07851 -4.99534,1.74524 -5.25896,1.48161 -0.26363,-0.26362 0.16112,-4.03779 0.94388,-8.38702 0.78276,-4.34924 2.38488,-14.20771 3.56026,-21.90771 1.17537,-7.7 2.38478,-15.28332 2.68757,-16.85182 0.51858,-2.68635 0.38506,-2.81934 -2.30129,-2.29208 -1.5685,0.30786 -5.87708,0.85479 -9.57462,1.2154 l -6.72279,0.65567 0.46557,5.63641 c 0.80792,9.78118 2.39537,29.33663 3.03483,37.38543 l 0.61564,7.749 -4.66813,2.001 c -6.54619,2.80602 -7.45564,2.6432 -6.97649,-1.24901 0.22005,-1.7875 1.12368,-10.675 2.00805,-19.75 0.88438,-9.075 1.96897,-19.65 2.41021,-23.5 0.44124,-3.85 0.69383,-7.12799 0.56132,-7.28443 -0.13251,-0.15643 -3.96203,0.0259 -8.51003,0.40519 l -8.2691,0.68962 0.59465,9.59481 c 0.32706,5.27715 1.09853,16.11981 1.71438,24.09481 1.90426,24.65937 2.30069,22.1293 -3.81576,24.35282 -2.90425,1.05578 -5.57041,1.62965 -5.9248,1.27526 -0.35439,-0.35438 0.11907,-9.07818 1.05213,-19.38621 0.93306,-10.30803 1.92566,-21.66687 2.20578,-25.24187 0.28013,-3.575 0.76582,-8.22239 1.07933,-10.32753 l 0.57,-3.82754 -8.35099,0.70582 c -4.59305,0.3882 -8.49972,0.83432 -8.6815,0.99137 -0.18177,0.15705 0.16429,5.61182 0.76902,12.12171 1.59904,17.21342 2.89174,31.76996 3.59194,40.44741 l 0.61417,7.61124 -5.1826,1.69515 c -2.85043,0.93232 -5.42924,1.4485 -5.73069,1.14705 -0.30145,-0.30145 0.20693,-12.36433 1.12972,-26.80639 0.92279,-14.44206 1.66906,-28.44866 1.65837,-31.12578 L 561,244.76502 l -7.75,0.71772 c -4.2625,0.39474 -7.85253,0.81264 -7.97785,0.92866 -0.12531,0.11603 0.22215,5.13343 0.77214,11.14978 1.87226,20.48074 2.9366,31.92492 3.94172,42.38295 0.78188,8.13515 0.72857,10.61462 -0.24111,11.21527 -2.05721,1.27431 -10.9309,3.98793 -11.42501,3.49383 -0.25274,-0.25275 0.22045,-10.51562 1.05156,-22.80639 0.8311,-12.29076 1.78939,-27.54278 2.12953,-33.89338 l 0.61844,-11.54654 -8.13282,0.94721 -8.13283,0.94721 0.58639,4.59933 c 0.32252,2.52963 1.02231,13.14933 1.5551,23.59933 0.53279,10.45 1.26695,23.99919 1.63146,30.10932 l 0.66276,11.10931 -6.14474,2.07511 -6.14474,2.07511 0,-5.3952 c 0,-2.96737 0.42917,-9.80036 0.9537,-15.18443 0.52454,-5.38407 1.66508,-18.11422 2.53453,-28.28922 0.86946,-10.175 1.76905,-20.00595 1.9991,-21.84656 0.37841,-3.02763 0.20834,-3.29554 -1.78453,-2.81123 -1.21154,0.29443 -5.00307,0.84462 -8.42562,1.22265 l -6.22282,0.68732 0.4602,12.12391 c 0.25311,6.66815 0.6815,23.42539 0.95197,37.23832 l 0.49178,25.1144 -6.17349,2.10794 c -3.39541,1.15936 -6.34208,1.93933 -6.54814,1.73326 -0.20607,-0.20607 0.089,-3.90612 0.65578,-8.22234 0.56675,-4.31622 1.49974,-12.34767 2.07332,-17.84767 1.50031,-14.38636 4.02087,-36.93739 4.97383,-44.5 0.45049,-3.575 0.66346,-6.67241 0.47327,-6.88313 -0.19019,-0.21072 -4.68717,0.19148 -9.9933,0.89377 l -9.6475,1.2769 0.62687,26.10623 c 0.34478,14.35843 0.88103,32.18123 1.19166,39.60623 l 0.56478,13.5 -6.72201,2.22137 -6.72201,2.22138 0.65325,-7.22138 C 474.7239,325.74962 475.47705,318 476.03827,312.5 c 0.56122,-5.5 1.44391,-14.5 1.96153,-20 2.46393,-26.18052 3.09003,-32.24155 3.64957,-35.33022 l 0.60331,-3.33022 -4.87634,0.67158 c -2.68199,0.36937 -6.56384,1.09782 -8.62634,1.61877 l -3.75,0.94718 0,33.30783 c 0,18.31931 -0.29031,37.31446 -0.64512,42.21146 l -0.64513,8.90362 -6.00641,2.76513 c -3.30352,1.52083 -6.2018,2.56975 -6.44061,2.33093 -0.23881,-0.23881 0.0384,-3.73312 0.61594,-7.76513 1.42755,-9.96556 3.82673,-28.41332 5.11511,-39.33093 1.15053,-9.74951 2.30675,-19.02472 4.08946,-32.8055 0.6265,-4.84303 0.95796,-8.98663 0.73658,-9.20801 -0.22138,-0.22138 -4.4339,0.60288 -9.36116,1.83169 l -8.95866,2.2342 -0.8761,45.07136 -0.87609,45.07136 -6.49178,3.20124 c -3.57048,1.76068 -6.68456,3.00846 -6.92018,2.77285 -0.44211,-0.44212 -0.20851,-2.44904 4.20999,-36.16919 1.44139,-11 3.0101,-23.15 3.48604,-27 0.47594,-3.85 1.57783,-12.34815 2.44863,-18.88477 0.87081,-6.53662 1.36479,-12.10326 1.09774,-12.37032 -0.26705,-0.26705 -5.00641,0.96604 -10.5319,2.74021 -7.31209,2.34782 -10.05253,3.67334 -10.06906,4.87032 -0.23361,16.9133 -3.01381,93.39463 -3.41884,94.04999 C 414.88686,365.99208 404.39297,372 403.16654,372 c -0.47507,0 -0.53223,-2.3625 -0.12703,-5.25 0.40521,-2.8875 1.25817,-9.3 1.89547,-14.25 0.63729,-4.95 1.787,-13.275 2.55491,-18.5 0.76791,-5.225 1.89734,-13.325 2.50985,-18 0.61251,-4.675 1.51262,-11.425 2.00026,-15 0.48764,-3.575 1.38416,-10.325 1.99228,-15 0.60812,-4.675 1.32902,-9.9625 1.60201,-11.75 0.27298,-1.7875 0.23707,-3.25 -0.0798,-3.25 -0.31689,0 -5.46499,2.05091 -11.44022,4.55757 l -10.86407,4.55757 -0.59102,17.19243 c -0.32507,9.45584 -0.85078,31.81743 -1.16824,49.69243 -0.64816,36.49431 0.25552,32.62499 -8.95972,38.3632 -2.52898,1.57476 -4.87795,2.58338 -5.21995,2.24138 -0.342,-0.342 0.14295,-6.13043 1.07766,-12.8632 1.62038,-11.67173 2.44851,-18.04428 4.6122,-35.49138 1.27414,-10.27413 2.70504,-21.34385 4.49188,-34.75 2.28289,-17.12787 2.82076,-22.5 2.25276,-22.5 -1.15745,0 -20.66732,10.1288 -21.21416,11.0136 -0.32293,0.52252 -0.9922,15.47072 -1.48726,33.21822 -0.49506,17.7475 -1.2139,41.04757 -1.59742,51.77795 l -0.69731,19.50976 -6.19423,4.24024 C 355.10855,404.09189 352.01531,406 351.64152,406 c -0.37379,0 -0.44505,-1.0125 -0.15835,-2.25 0.28671,-1.2375 0.95722,-6.075 1.49003,-10.75 0.53281,-4.675 1.44561,-12.325 2.02844,-17 3.59125,-28.80594 6.78469,-53.85341 7.96848,-62.5 0.52709,-3.85 1.26022,-9.65897 1.62918,-12.90882 0.79617,-7.01281 1.49058,-7.06363 -12.00415,0.87844 l -9.39187,5.52741 -0.58793,6.75149 c -0.32336,3.71331 -1.03837,17.55148 -1.58891,30.75148 -1.55908,37.38127 -3.20399,72.9968 -3.37297,73.03169 -0.0844,0.0174 -2.70024,2.15493 -5.81296,4.75 -3.11272,2.59507 -6.05278,4.71831 -6.53346,4.71831 -0.834,0 0.16953,-8.66738 9.58828,-82.8122 C 337.1529,326.4161 339,311.43463 339,310.89565 c 0,-1.18168 -6.79035,2.70984 -17.08726,9.79262 l -7.58726,5.21894 -0.66528,33.7964 c -0.3659,18.58801 -0.95977,42.66847 -1.31969,53.51212 l -0.65442,19.71573 -14.59305,10.98344 c -8.02617,6.04088 -16.46135,12.69381 -18.74483,14.78426 -2.28349,2.09046 -6.89599,6.23083 -10.25,9.20081 L 262,473.29993 l 0,12.45263 0,12.45263 8.1643,-10.3526 c 4.49036,-5.69392 13.37786,-15.53649 19.75,-21.87237 z m 425.568,-186.5459 c 1.49582,-1.96112 2.56173,-3.67997 2.36869,-3.81966 -0.19305,-0.13969 -2.60099,-1.19381 -5.35099,-2.34248 -8.3339,-3.48108 -26.84878,-11.77965 -29.33565,-13.14855 -3.1517,-1.73487 -2.27206,-2.30171 1.77201,-1.14188 1.81715,0.52115 7.63735,1.86247 12.93377,2.9807 5.29643,1.11824 12.7797,2.70915 16.6295,3.53535 3.84979,0.82621 7.67479,1.48798 8.5,1.47059 1.83061,-0.0386 7.4272,-8.95202 6.3034,-10.03918 -0.44167,-0.42726 -6.17488,-2.19425 -12.74047,-3.92664 -6.5656,-1.73239 -13.3156,-3.78526 -15,-4.56192 -2.73698,-1.262 -1.62736,-1.33682 10.43744,-0.70379 24.00151,1.25933 23.0721,1.37641 25.69386,-3.23686 3.77478,-6.64212 4.3786,-6.32516 -15.44386,-8.10679 -3.9875,-0.3584 -7.25,-0.95777 -7.25,-1.33193 0,-0.37417 4.8375,-1.25381 10.75,-1.95476 18.33925,-2.17421 18.53803,-2.23385 20.45197,-6.13628 3.03736,-6.19306 2.89988,-6.28814 -7.95197,-5.4996 -9.09467,0.66085 -9.96844,0.91728 -13,3.81508 -4.02939,3.85162 -4.10554,3.15901 -1.17333,-10.67097 1.14217,-5.38711 1.87077,-10.00064 1.61911,-10.2523 -0.25165,-0.25166 -2.98615,0.78259 -6.07667,2.29831 L 714,209.41664 l 0,12.67122 0,12.67122 -4.55481,3.73232 c -2.50514,2.05277 -4.72701,3.56012 -4.93748,3.34965 -0.21046,-0.21047 0.89591,-5.77331 2.45862,-12.36186 1.5627,-6.58856 3.14016,-13.41818 3.50546,-15.17696 l 0.66418,-3.19776 -7.21092,3.19776 -7.21092,3.19777 0.58515,15.04218 0.58515,15.04219 -4.56147,2.75523 c -2.50881,1.51537 -4.67788,2.62139 -4.82017,2.45781 -0.14228,-0.16357 0.33388,-3.67241 1.05815,-7.79741 0.72426,-4.125 2.02172,-11.51012 2.88325,-16.41137 0.86152,-4.90125 1.34428,-9.13349 1.07279,-9.40498 -0.27149,-0.27149 -3.42387,0.75176 -7.0053,2.27388 L 680,224.22504 l 0,17.21022 0,17.21023 -4.56437,2.27955 c -2.5104,1.25376 -4.71709,2.12102 -4.90377,1.92726 -0.18667,-0.19377 0.53143,-4.8523 1.59578,-10.3523 3.12075,-16.12639 4.95107,-26.75736 4.65147,-27.01688 -0.15351,-0.13298 -3.42911,0.74951 -7.27911,1.96108 l -7,2.20286 -0.27108,19.03058 -0.27108,19.03057 7.27108,2.2141 c 3.99909,1.21776 8.39608,2.59862 9.77108,3.06859 1.375,0.46996 7.9,2.48949 14.5,4.48784 6.6,1.99835 12.9,4.02769 14,4.50963 3.60508,1.57951 5.22476,1.06126 7.9823,-2.55405 z M 743,216.19763 c 7.34445,-2.57228 8.73138,-3.43382 10.20197,-6.33731 2.6158,-5.16457 2.35897,-5.85399 -1.75735,-4.71742 -1.95545,0.53993 -4.53126,0.84116 -5.72401,0.66939 -1.68085,-0.24205 -0.79844,-1.04064 3.92308,-3.55042 3.35044,-1.78097 6.65217,-3.91344 7.33718,-4.73882 1.20624,-1.45342 6.29157,-17.58394 5.72285,-18.15267 -0.15503,-0.15503 -1.52503,0.71071 -3.04444,1.92387 -1.7955,1.4336 -3.11413,3.78103 -3.76687,6.70575 -1.82419,8.17364 -6.3254,12.62639 -4.80169,4.75 0.4522,-2.3375 0.84178,-4.6104 0.86573,-5.05089 0.024,-0.44049 -1.64395,0.44131 -3.70645,1.95955 -2.0625,1.51824 -3.83747,2.79112 -3.94439,2.82861 -0.10691,0.0375 -0.63111,3.58593 -1.1649,7.88542 -0.72559,5.84443 -1.53978,8.4232 -3.22622,10.21833 -1.24064,1.3206 -2.4013,2.25551 -2.57924,2.07756 -0.17794,-0.17794 0.53465,-4.2506 1.58353,-9.05036 1.04888,-4.79976 1.60874,-8.58735 1.24414,-8.41687 -0.36461,0.17048 -3.01894,1.65742 -5.89851,3.30431 l -5.23559,2.99434 -0.0144,9.68019 -0.0144,9.6802 2.75,-0.84288 c 1.5125,-0.46358 6.575,-2.18253 11.25,-3.81988 z" />
    <path
       inkscape:connector-curvature="0"
       id="path2163"
       style="fill:#ffffff;fill-opacity:1"
       d="M 644.83259,590.45707 C 654.11202,587.70138 660,579.88491 660,570.32186 L 660,567 l -11.5,0 -11.5,0 0,4.42857 c 0,6.29564 -4.33486,9.83657 -7.8,6.37143 -1.26565,-1.26565 -1.78505,-32.11181 -0.59301,-35.21821 C 628.96455,541.65 630.38833,541 632.07181,541 635.35914,541 637,543.30879 637,547.93426 l 0,3.06574 11.5,0 11.5,0 -0.0439,-3.25 c -0.0563,-4.16771 -2.24776,-10.3094 -4.61103,-12.92261 -1.01479,-1.12211 -3.64508,-2.99865 -5.84508,-4.17009 -3.50805,-1.86793 -5.66033,-2.13156 -17.5,-2.14359 -12.27724,-0.0125 -13.86385,0.19491 -17.51718,2.28958 -8.19734,4.70002 -10.77972,11.41378 -10.84556,28.19671 -0.0773,19.69352 3.43656,27.28841 14.36274,31.04415 6.8628,2.359 19.61843,2.5553 26.83259,0.41292 z m 134.42502,-0.0292 c 8.31603,-2.83356 12.88165,-9.2491 13.03781,-18.32054 0.17369,-10.08951 -4.75715,-15.4048 -17.79542,-19.18292 -12.85595,-3.72528 -15.39918,-5.51601 -14.01733,-9.86982 1.35899,-4.28182 7.27008,-3.54084 8.18342,1.02582 L 769.25,547 l 10.875,0 10.875,0 0,-2.53212 c 0,-6.55366 -5.71477,-13.45384 -12.78105,-15.43224 -6.59626,-1.8468 -16.51431,-2.32172 -22.72705,-1.08827 -13.84839,2.74939 -18.58861,7.86658 -18.74247,20.23302 -0.12242,9.83907 2.75238,12.6761 18.1128,17.8749 12.00386,4.06275 14.98071,6.59741 13.212,11.24947 -0.79709,2.09651 -1.6881,2.69524 -4.01094,2.69524 -2.63772,0 -3.11189,-0.46679 -4.06329,-4 l -1.07709,-4 -11.46145,0 -11.46146,0 0,3.59887 c 0,7.22195 3.74369,11.93628 11.8448,14.91584 5.34615,1.96629 25.55114,1.91045 31.41281,-0.0868 z M 256.27875,585.25 257.1177,581 l 5.9221,0 c 6.3268,0 6.1856,-0.12777 7.18344,6.5 0.27951,1.85655 1.17886,2.02014 12.53894,2.28078 6.7308,0.15443 12.23248,0.15443 12.22595,0 -0.007,-0.15443 -0.70189,-2.75578 -1.54525,-5.78078 -1.32446,-4.75064 -5.20552,-19.5285 -12.21216,-46.5 l -1.81846,-7 -19.20613,-0.27159 C 241.50872,529.96401 241,530.01036 241,531.97841 c 0,1.14872 0.66121,2.02159 1.53138,2.02159 3.51644,0 3.4228,0.48157 -8.94508,46 -1.41969,5.225 -2.58239,9.62635 -2.58378,9.78078 -0.001,0.15443 5.49643,0.15443 12.21738,0 l 12.21989,-0.28078 0.83896,-4.25 z m 2.73245,-16.5 c 0.078,-1.74059 3.90192,-21.99645 4.21088,-22.30542 0.23174,-0.23173 0.98799,3.28593 1.68056,7.81704 0.69257,4.53111 1.49788,9.70088 1.78958,11.48838 0.52639,3.22566 0.49958,3.25 -3.58093,3.25 -2.26121,0 -4.10625,-0.1125 -4.10009,-0.25 z m 85.4888,13.75 0,-7 -9.75,-0.28621 -9.75,-0.28621 0,-22.46379 0,-22.46379 -14.5,0 c -13.41157,0 -14.5,0.13808 -14.5,1.83948 0,1.01172 1.125,2.35207 2.5,2.97857 l 2.5,1.13907 0,27.04094 0,27.04094 21.75,-0.2695 21.75,-0.2695 0,-7 z m 49.5,0 0,-7.5 -10,0 -10,0 0,-22.5 0,-22.5 -14,0 c -12.18875,0 -14,0.20779 -14,1.60608 0,0.88334 1.125,2.491 2.5,3.57258 l 2.5,1.9665 0,26.42742 0,26.42742 21.5,0 21.5,0 0,-7.5 z m 78.72934,5.53618 c 5.74203,-2.60658 8.26215,-6.95683 8.26692,-14.2704 0.003,-4.85053 -0.42006,-6.20544 -2.74626,-8.79189 -1.5125,-1.68171 -4.42974,-3.63063 -6.48277,-4.33093 l -3.73276,-1.27327 4.06298,-1.79259 c 5.22093,-2.30347 7.89397,-6.66109 7.89881,-12.87676 0.005,-6.00012 -2.08606,-10.15054 -6.26319,-12.43341 -2.79165,-1.52569 -6.61227,-1.81157 -27.98307,-2.09387 -23.46701,-0.30999 -24.75,-0.23174 -24.75,1.50945 0,1.01002 0.9,2.39846 2,3.08542 1.91975,1.1989 2,2.33202 2,28.24054 L 425,590 l 21.75,-0.022 c 19.283,-0.0195 22.22971,-0.23973 25.97934,-1.94186 z M 448,571.5 l 0,-5.5 4.03222,0 c 3.26598,0 4.19188,0.42757 4.87235,2.25 0.91069,2.43897 -0.28557,6.73614 -2.21713,7.96434 -0.65309,0.41527 -2.42494,0.76193 -3.93744,0.77035 -2.66852,0.0149 -2.75,-0.14764 -2.75,-5.48469 z m 0,-23.5 0,-5 3.52144,0 c 2.78578,0 3.7594,0.52227 4.66051,2.5 1.85856,4.07908 -0.26721,7.5 -4.66051,7.5 L 448,553 l 0,-5 z m 85,34.5 0,-7.5 -9.5,0 -9.5,0 0,-22.5 0,-22.5 -14.5,0 c -13.83333,0 -14.5,0.0919 -14.5,2 0,1.1 0.41786,2 0.92857,2 0.51072,0 1.63572,0.70714 2.5,1.57143 1.34929,1.34929 1.57143,5.30736 1.57143,28 L 490,590 l 21.5,0 21.5,0 0,-7.5 z m 29.71911,3.25 0.8368,-4.25 6.10181,-0.2946 6.10182,-0.29459 0.6815,4.54459 0.68151,4.5446 11.93872,0 c 8.89432,0 11.93395,-0.31875 11.91998,-1.25 -0.0103,-0.6875 -1.15203,-5.525 -2.53715,-10.75 -1.38513,-5.225 -4.05668,-15.35 -5.93679,-22.5 -1.8801,-7.15 -4.11338,-15.60946 -4.96284,-18.79879 C 586.69501,533.51188 586,530.69938 586,530.45121 586,530.20304 577.45,530 567,530 c -16.69874,0 -19,0.19254 -19,1.58971 0,0.87434 0.89187,2.33684 1.98193,3.25 1.96766,1.64834 1.96026,1.73944 -1.02943,12.66029 -4.09882,14.97236 -10.08142,37.50085 -10.68866,40.25 -0.49399,2.23641 -0.42417,2.25 11.56073,2.25 l 12.05773,0 0.83681,-4.25 z m 3.54052,-20 c 3.07318,-20.87562 3.67864,-21.80807 5.68159,-8.75 0.63272,4.125 1.40358,8.5125 1.713,9.75 0.51674,2.06662 0.21884,2.25 -3.65522,2.25 -4.19003,0 -4.21466,-0.0214 -3.73937,-3.25 z M 691,581.45636 c 0,-7.60544 0.26056,-8.82466 2.37278,-11.10259 l 2.37279,-2.55894 6.40778,10.85259 6.40778,10.85258 12.21944,0.28078 c 9.64512,0.22163 12.21943,4.2e-4 12.21943,-1.05 0,-0.73193 -0.40759,-1.75828 -0.90576,-2.28078 -0.49817,-0.5225 -1.78438,-2.525 -2.85824,-4.45 -1.07386,-1.925 -5.16071,-8.73622 -9.08189,-15.13604 -3.92118,-6.39982 -7.37337,-12.27177 -7.67153,-13.04877 -0.33927,-0.88411 3.58504,-5.49816 10.48765,-12.33094 C 729.0366,535.47923 734,530.21368 734,529.78302 734,529.35236 728.00304,529 720.67341,529 l -13.32658,0 -7.78517,8 c -4.28184,4.4 -7.95988,8 -8.17341,8 C 691.17471,545 691,541.4 691,537 l 0,-8 -14,0 c -13.87545,0 -14,0.0201 -14,2.26287 0,1.38753 0.87036,2.64472 2.25,3.25 2.24439,0.98467 2.25066,1.05506 2.51607,28.23713 l 0.26607,27.25 11.48393,0 11.48393,0 0,-8.54364 z m 120.91342,-55.22952 c 3.91662,-2.90673 5.22225,-6.11638 4.75518,-11.68968 -0.34362,-4.10021 -0.97362,-5.42843 -3.62444,-7.64144 -3.9501,-3.29769 -8.13644,-4.21723 -13.10657,-2.87892 -11.2748,3.03599 -12.28754,18.74458 -1.5224,23.61403 3.88056,1.75531 10.11506,1.10685 13.49823,-1.40399 z M 800,524 c -1.2819,-0.82843 -1.24555,-0.9716 0.25,-0.98469 1.19592,-0.0105 1.75,-0.80686 1.75,-2.51531 0,-3.02481 1.55454,-3.31145 2.30916,-0.42579 0.29833,1.14082 1.51385,2.32825 2.70116,2.63874 1.63158,0.42667 1.83285,0.77111 0.82421,1.41047 C 806.04035,525.26074 801.84867,525.19471 800,524 z m -3.39301,-3.58179 C 795.68651,518.0195 795.90898,512.68823 797,511 c 0.68311,-1.05704 0.9739,0.34568 0.98469,4.75 0.0156,6.38515 -0.30367,7.4671 -1.3777,4.66821 z m 11.31453,-0.56485 c -0.93382,-1.74485 -0.84682,-2.31566 0.46482,-3.04969 1.89356,-1.05969 2.13314,-4.88419 0.41366,-6.60367 -0.66,-0.66 -3.2475,-1.20689 -5.75,-1.21531 -3.30627,-0.0111 -4.13998,-0.28029 -3.05,-0.98469 4.90901,-3.17244 12,1.18424 12,7.37276 0,6.40355 -1.9203,8.51319 -4.07848,4.4806 z M 802,513 c 0,-0.55 0.9,-1 2,-1 1.1,0 2,0.45 2,1 0,0.55 -0.9,1 -2,1 -1.1,0 -2,-0.45 -2,-1 z M 270.05948,489.25 c 9.56624,-12.31617 26.63055,-29.81181 38.74559,-39.72496 5.14673,-4.21132 8.10592,-7.31462 7.78139,-8.16034 -0.28803,-0.75058 -0.19442,-1.3647 0.20803,-1.3647 0.63551,0 46.98647,20.72579 65.09312,29.10634 3.51318,1.62605 8.68818,3.94107 11.5,5.14448 2.81181,1.20341 7.58739,3.38374 10.61239,4.84518 l 5.5,2.65716 3.5,-2.77706 c 1.925,-1.52739 4.52815,-3.88001 5.78478,-5.22805 l 2.28477,-2.45099 -17.28477,-11.34327 C 394.27815,453.71499 377.275,442.56539 366,435.17691 c -11.275,-7.38848 -20.95,-13.86185 -21.5,-14.38526 -0.55,-0.52342 1.7,0.26078 5,1.74267 3.3,1.4819 8.7,3.81181 12,5.17759 3.3,1.36579 8.25,3.50556 11,4.75505 2.75,1.24949 9.95,4.40719 16,7.01712 6.05,2.60993 12.35,5.34461 14,6.07707 8.72286,3.87222 22.62467,9.81274 27.17329,11.6117 l 5.17329,2.04601 5.5209,-4.35943 c 3.03649,-2.39769 5.54601,-4.617 5.57671,-4.9318 0.0649,-0.66588 1.0393,-0.0192 -40.21209,-26.68766 -17.47234,-11.29563 -31.61137,-20.69404 -31.42005,-20.88535 0.27283,-0.27283 67.01667,29.5042 81.38848,36.31057 3.13886,1.48654 3.30953,1.43768 8.85907,-2.53626 l 5.65855,-4.052 -11.85908,-7.70378 C 430.78365,406.45986 399.42822,385.72165 398.5,384.78288 c -0.55,-0.55626 0.35,-0.33386 2,0.4942 4.21185,2.11376 17.44561,8.24051 27.5,12.73151 4.675,2.08819 13,5.90736 18.5,8.48706 5.5,2.57969 12.25,5.72792 15,6.99605 2.75,1.26813 8.6,3.97607 13,6.01763 l 8,3.71193 6.25,-3.30872 c 3.4375,-1.8198 6.23186,-3.55708 6.20969,-3.86063 -0.0222,-0.30355 -5.98467,-4.36386 -13.25,-9.02291 -12.25671,-7.85989 -32.53783,-20.98925 -49.20969,-31.8568 -6.34326,-4.13486 -10.65028,-7.33287 -8,-5.94009 0.55,0.28904 3.475,1.65896 6.5,3.04426 3.025,1.3853 11.35,5.31094 18.5,8.72363 7.15,3.41269 15.475,7.34829 18.5,8.74578 3.025,1.39748 13.32308,6.30138 22.88463,10.89755 9.56155,4.59617 17.88655,8.33544 18.5,8.30949 0.61345,-0.0259 3.50138,-1.28294 6.41761,-2.79332 l 5.30225,-2.74614 -17.30225,-11.40946 C 462.34259,364.66456 453.44184,358.72785 452.5,357.78584 c -0.55,-0.55009 5.525,2.36374 13.5,6.4752 7.975,4.11146 26.17658,13.43474 40.44795,20.7184 l 25.94794,13.24303 5.55206,-2.73674 c 4.8891,-2.40996 5.33595,-2.87102 3.74223,-3.86124 -0.9954,-0.61847 -11.3454,-7.42952 -23,-15.13566 -11.6546,-7.70614 -26.57217,-17.49364 -33.15017,-21.75 C 478.96202,350.48247 473.88923,347 474.26714,347 c 0.37792,0 5.75991,2.63783 11.95999,5.86184 6.20008,3.22401 19.82287,10.26043 30.27287,15.63648 10.45,5.37606 23.14682,11.96499 28.21517,14.64209 l 9.21516,4.86744 4.53484,-2.20319 c 2.49415,-1.21175 4.51978,-2.45102 4.50138,-2.75393 -0.0184,-0.3029 -14.22496,-9.98228 -31.57015,-21.50972 -17.34518,-11.52744 -31.768,-21.33325 -32.05071,-21.79069 -0.28271,-0.45743 3.23636,1.14429 7.82015,3.55939 4.58379,2.41509 14.63416,7.66786 22.33416,11.67282 7.7,4.00495 17.6,9.18493 22,11.51105 4.4,2.32612 11.24899,5.9411 15.21997,8.03328 l 7.21997,3.80397 4.03003,-1.81729 C 580.18649,375.51403 582,374.41162 582,374.06373 c 0,-0.34788 -1.29854,-1.39958 -2.88565,-2.33711 -4.95632,-2.92777 -57.53413,-38.90366 -59.11435,-40.44846 -0.825,-0.80651 1.875,0.3082 6,2.47713 4.125,2.16893 20.55,10.59321 36.5,18.72061 15.95,8.1274 29.40315,15.14582 29.89589,15.59649 0.9425,0.86202 8.63047,-2.58617 8.5676,-3.84271 -0.0201,-0.40133 -2.15758,-2.06236 -4.75,-3.6912 -7.48813,-4.70484 -55.59229,-36.57839 -56.18105,-37.22525 -0.48076,-0.52819 5.32673,2.47584 26.46756,13.69086 3.85,2.04239 15.325,8.02064 25.5,13.285 l 18.5,9.57157 3.20034,-1.68033 c 1.76019,-0.92418 3.33519,-2.01107 3.5,-2.41531 C 617.36515,355.36078 615.25,353.53983 612.5,351.71846 590.49953,337.14724 562,317.74342 562,317.3357 c 0,-0.27435 1.4625,0.37618 3.25,1.44563 1.7875,1.06945 7.3,4.0937 12.25,6.72056 4.95,2.62686 11.25,5.99856 14,7.49268 2.75,1.49411 10.85,5.76985 18,9.50164 7.15,3.73178 13.4275,7.17178 13.95,7.64443 1.45009,1.31174 3.20273,1.04115 6.58705,-1.01698 l 3.08539,-1.87633 -25.81122,-17.24999 C 593.11505,320.50984 580.825,312.04134 580,311.17844 c -1.33333,-1.39458 -1.33333,-1.45214 0,-0.51803 0.825,0.57798 6.9,3.87459 13.5,7.32579 6.6,3.4512 14.25,7.50576 17,9.01013 5.87202,3.21225 20.19355,10.84865 26.23296,13.98771 l 4.23297,2.20014 3.59024,-2.21889 c 1.97462,-1.22039 3.21979,-2.55396 2.76703,-2.96348 -0.45276,-0.40953 -12.0732,-8.27221 -25.8232,-17.47262 -13.75,-9.20042 -25.36067,-17.06647 -25.80149,-17.4801 -0.44082,-0.41364 13.10161,6.23663 30.0943,14.77838 l 30.89579,15.53045 3.2047,-2.28195 c 1.76259,-1.25507 3.07016,-2.63638 2.9057,-3.06958 -0.16445,-0.4332 -10.31896,-7.4294 -22.56558,-15.5471 -12.24662,-8.1177 -22.12656,-14.89948 -21.95542,-15.07062 0.17114,-0.17114 12.11425,5.57415 26.54024,12.76731 l 26.22908,13.07848 4.11118,-2.72065 4.11117,-2.72065 -4.38483,-2.7896 c -12.29635,-7.82287 -37.14025,-23.08428 -39.91178,-24.51749 -1.73741,-0.89845 -2.96464,-1.82782 -2.72719,-2.06528 0.35888,-0.35887 21.97454,8.60789 37.25413,15.45403 2.2,0.98573 7.063,3.07049 10.80667,4.63281 l 6.80666,2.84057 3.14205,-3.14205 c 1.72813,-1.72812 2.94013,-3.31808 2.69334,-3.53323 -0.63872,-0.55681 -37.88867,-21.72963 -41.19872,-23.41729 -3.96959,-2.02393 -3.37928,-2.48435 1,-0.77995 2.0625,0.80272 13.63567,5.08091 25.71815,9.50709 l 21.96815,8.04759 3.40265,-3.40265 3.40265,-3.40265 -9.41818,-4.86253 c -5.18,-2.67439 -13.75378,-7.10561 -19.05284,-9.84716 -5.29906,-2.74155 -9.48149,-5.13779 -9.2943,-5.32499 0.1872,-0.18719 7.01912,1.75556 15.18204,4.31723 8.16292,2.56167 17.86891,5.60569 21.56886,6.76447 3.69995,1.15879 6.86816,1.90912 7.04045,1.6674 0.1723,-0.24171 1.53257,-2.09696 3.02282,-4.12276 1.49025,-2.0258 2.70955,-3.88289 2.70955,-4.12685 0,-0.24397 -2.3625,-1.44955 -5.25,-2.67906 -2.8875,-1.22952 -7.05,-3.04415 -9.25,-4.03251 -2.2,-0.98837 -7.6,-3.39964 -12,-5.35838 -4.4,-1.95874 -7.71074,-3.57452 -7.3572,-3.59063 0.35353,-0.0161 6.42853,1.25971 13.5,2.83515 18.71185,4.16878 25.3666,5.46958 25.71991,5.02746 1.99312,-2.4941 6.63729,-9.96768 6.63729,-10.68098 0,-0.5108 -5.2875,-2.39067 -11.75,-4.17748 -17.74189,-4.90546 -17.98507,-5.09592 -5.75,-4.50343 6.05,0.29297 13.475,0.78745 16.5,1.09884 l 5.5,0.56616 2.88154,-5.7072 c 3.47791,-6.88838 3.33078,-7.03982 -7.79566,-8.02376 -12.88658,-1.1396 -12.75117,-1.98467 0.53748,-3.3542 6.78014,-0.69876 12.68251,-1.48987 13.11637,-1.75801 1.2142,-0.75042 4.76027,-8.07712 4.76027,-9.8354 0,-1.34473 -1.1532,-1.47087 -8.25,-0.90244 -4.5375,0.36344 -8.025,0.44087 -7.75,0.17207 0.275,-0.2688 4.1,-1.72887 8.5,-3.24459 9.82726,-3.38532 12.10209,-4.76532 12.74317,-7.73051 0.2748,-1.27103 0.85439,-3.16035 1.28799,-4.19847 0.72953,-1.74668 0.42203,-1.83875 -4.12141,-1.2341 l -4.90975,0.6534 5.73614,-3.2659 c 5.58042,-3.17723 5.8025,-3.46952 8.18032,-10.7659 1.3443,-4.125 2.7496,-9.02314 3.12291,-10.88476 l 0.67874,-3.38476 -4.09267,3.28896 c -2.93646,2.3598 -4.27575,4.3048 -4.74074,6.88476 -0.35644,1.97769 -1.28817,4.7208 -2.07051,6.0958 -1.34757,2.3684 -1.39429,2.24996 -0.88745,-2.25 0.29425,-2.6125 0.33176,-4.75 0.0834,-4.75 -0.2484,0 -2.46489,1.41907 -4.92554,3.1535 l -4.4739,3.15349 -0.68085,7.80511 c -0.52187,5.98255 -1.14959,8.22341 -2.68823,9.5965 -1.9409,1.73206 -1.98764,1.72515 -1.41117,-0.2086 0.32792,-1.1 1.07923,-4.25 1.66958,-7 0.59035,-2.75 1.31217,-5.7875 1.60407,-6.75 0.76785,-2.53199 -0.55527,-2.19472 -7.4543,1.90014 l -6.1498,3.65014 0,10.17554 c 0,9.56095 -0.151,10.31741 -2.5,12.52418 -3.10682,2.91871 -3.12895,2.37596 -0.42333,-10.38525 1.14217,-5.38711 1.79167,-10.07974 1.44334,-10.42808 -0.34834,-0.34833 -3.53224,0.92966 -7.07534,2.84 l -6.442,3.47333 -10e-4,12.66597 -10e-4,12.66597 -4.12564,3.26757 c -3.30566,2.61813 -4.01352,2.88327 -3.56152,1.33403 0.31027,-1.06345 1.29502,-5.08354 2.18834,-8.93354 0.89332,-3.85 2.30283,-9.85567 3.13225,-13.34593 0.82942,-3.49027 1.32426,-6.52972 1.09963,-6.75434 -0.22462,-0.22462 -1.71895,0.22539 -3.32073,1.00002 -1.60178,0.77463 -5.10568,2.38827 -7.78644,3.58587 l -4.87412,2.17745 0.7159,14.84582 0.7159,14.84581 -3.84179,2.45526 c -2.11298,1.3504 -3.89936,2.39559 -3.96973,2.32265 -0.0704,-0.0729 0.46462,-3.50761 1.18889,-7.63261 0.72426,-4.125 2.02172,-11.51012 2.88325,-16.41137 0.86152,-4.90125 1.37306,-9.10471 1.13675,-9.34102 -0.23631,-0.23631 -3.83869,0.8381 -8.0053,2.38758 L 679,223.45243 l 0,17.19222 0,17.19223 -3.5526,2.19563 c -1.95393,1.20759 -3.77419,1.97403 -4.04503,1.7032 -0.27083,-0.27084 -0.0405,-2.45967 0.51184,-4.86407 2.08119,-9.05963 6.23818,-32.05259 5.86278,-32.42799 -0.21508,-0.21508 -4.0779,0.81761 -8.58403,2.29487 L 661,229.42444 l 0,19.10257 0,19.10257 -3.62381,1.72807 c -1.99309,0.95044 -3.83772,1.51416 -4.09917,1.2527 -0.26145,-0.26145 0.72031,-6.69324 2.1817,-14.29286 4.4975,-23.38829 4.82873,-25.36338 4.33606,-25.85605 -0.53035,-0.53034 -14.96988,2.91071 -16.69938,3.9796 C 642.35929,234.89598 642,241.82796 642,255.5752 l 0,20.45716 -3.48744,1.66304 c -1.9181,0.91468 -3.72069,1.4298 -4.00576,1.14473 -0.28508,-0.28508 0.15728,-4.30323 0.98302,-8.92923 3.22708,-18.07895 5.8067,-34.94771 5.40565,-35.34877 -0.23149,-0.23149 -2.44018,-0.0322 -4.90818,0.44277 -2.46801,0.47501 -6.17479,1.13862 -8.23729,1.47469 l -3.75,0.61104 0,23.30299 0,23.303 -4.17742,1.64094 c -2.29758,0.90251 -4.30184,1.51651 -4.45392,1.36444 -0.15207,-0.15208 1.22762,-9.70974 3.06599,-21.23925 4.9647,-31.13666 4.71894,-28.63565 2.76059,-28.09315 -0.93238,0.25829 -4.84524,0.75832 -8.69524,1.11117 -10.37654,0.951 -10.30838,0.91095 -9.86458,5.79665 C 603.92508,258.475 606,285.31004 606,287.79173 c 0,2.56489 -0.57723,3.157 -4.56076,4.67832 -2.50841,0.95798 -4.68119,1.58161 -4.8284,1.38586 -0.33225,-0.44181 0.55621,-10.95644 2.92299,-34.59261 1.00436,-10.03018 1.63025,-18.43255 1.39087,-18.67193 -0.65293,-0.65294 -16.7165,0.86709 -17.50592,1.65651 -0.5966,0.59661 1.56749,34.1429 3.21422,49.8246 l 0.58517,5.57249 -4.39252,1.67751 C 580.40977,300.24512 578.04426,301 577.56897,301 c -0.90688,0 -0.56347,-5.80958 2.26558,-38.3271 0.94873,-10.90491 1.45468,-19.99414 1.12434,-20.19831 -0.33035,-0.20416 -4.39374,-0.057 -9.02976,0.3271 L 563.5,243.5 l 0.11176,4 c 0.0615,2.2 0.62396,9.7375 1.25,16.75 2.74001,30.69215 3.26928,37.96613 2.84328,39.07627 -0.54286,1.41468 -7.59466,4.11745 -8.46694,3.24516 -0.33669,-0.33669 0.20693,-14.34307 1.20805,-31.12528 1.00113,-16.78221 1.58194,-30.75139 1.2907,-31.04263 -0.29124,-0.29125 -4.28868,-0.16368 -8.88319,0.28347 L 544.5,245.5 l 0.31851,5.5 c 0.17518,3.025 1.41195,16.975 2.74837,31 1.33643,14.025 2.4306,26.20161 2.43149,27.05913 10e-4,0.9995 -1.86338,2.15553 -5.19431,3.22072 -2.85777,0.91388 -5.38509,1.47245 -5.61627,1.24127 -0.36333,-0.36333 1.6583,-35.99116 3.39932,-59.90728 l 0.57409,-7.88615 -8.32125,0.72587 c -4.5767,0.39923 -8.56064,0.87382 -8.85322,1.05464 -0.29258,0.18082 -0.21311,5.65295 0.17659,12.16028 2.45074,40.92327 2.84939,48.34875 2.84337,52.96281 l -0.007,5.13128 -4.25,1.17541 c -2.3375,0.64648 -4.78902,1.40457 -5.44783,1.68466 -0.83437,0.35472 -1.07333,-0.49692 -0.78753,-2.8067 0.22566,-1.82377 0.91544,-9.84094 1.53282,-17.81594 0.61739,-7.975 1.75928,-21.20054 2.53753,-29.3901 C 523.36325,262.42035 524,253.9247 524,251.73069 l 0,-3.98911 -7.10227,0.69984 c -3.90625,0.38491 -7.79551,0.96586 -8.64281,1.291 -1.35885,0.52144 -1.49422,4.94731 -1.14773,37.52431 l 0.39281,36.93314 -4.94086,1.88087 c -2.71748,1.03448 -5.10357,1.71816 -5.30244,1.51929 -0.19887,-0.19887 0.0934,-4.12548 0.64947,-8.72581 0.55609,-4.60032 1.50002,-13.08922 2.09763,-18.86422 0.59762,-5.775 1.71545,-15.9 2.48407,-22.5 0.76862,-6.6 1.70116,-15.4875 2.0723,-19.75 0.7815,-8.97532 1.82895,-8.39587 -11.56017,-6.39504 l -8.5,1.27022 0.1828,16.93741 c 0.10055,9.31557 0.46714,27.1006 0.81465,39.52228 l 0.63184,22.58488 -5.56465,2.04987 -5.56464,2.04986 0,-2.90389 c 0,-1.59715 1.14266,-14.03278 2.53924,-27.63475 1.39659,-13.60196 2.97222,-29.68084 3.5014,-35.73084 0.52919,-6.05 1.23268,-12.28485 1.56332,-13.85523 l 0.60117,-2.85522 -4.35256,0.66132 c -2.39391,0.36372 -6.71507,1.11798 -9.60257,1.67612 l -5.25,1.01481 0,42.26537 0,42.26538 -6.1094,2.63607 -6.10939,2.63607 0.63154,-4.22234 c 0.34735,-2.32229 1.02776,-7.59735 1.51203,-11.72235 2.24127,-19.09121 7.14846,-58.16767 8.06126,-64.19263 0.55768,-3.68094 1.01396,-7.22961 1.01396,-7.88592 0,-1.4424 -6.61468,-0.69421 -15.2272,1.72234 l -5.7728,1.61976 0,26.70792 c 0,14.68935 -0.29591,34.87712 -0.65757,44.86169 l -0.65757,18.15378 -5.44351,3.07212 c -2.99392,1.68967 -5.66274,2.85289 -5.93069,2.58493 -0.26796,-0.26795 0.47306,-7.83497 1.64671,-16.81559 1.17364,-8.98062 2.55378,-19.7034 3.06697,-23.8284 0.5132,-4.125 2.27648,-17.82868 3.91842,-30.45262 1.64194,-12.62394 2.78774,-23.15021 2.54624,-23.39171 -0.49011,-0.49011 -19.30844,5.38297 -21.18336,6.61119 -0.86663,0.56771 -1.55262,13.80699 -2.5,48.24866 l -1.30564,47.46627 -5.45576,3.2591 c -6.21542,3.71291 -7.39732,3.98112 -6.64988,1.50911 0.29102,-0.9625 0.98137,-5.35 1.5341,-9.75 1.27071,-10.11532 2.38185,-18.37177 5.58505,-41.5 5.13094,-37.04733 6.39166,-47.29021 5.89238,-47.87359 -0.36238,-0.42342 -10.13448,3.42901 -18.49781,7.29234 l -5.59192,2.58312 -0.65525,18.74907 C 391.30052,309.06292 391.003,323.8 390.99977,331.5 c -0.003,7.7 -0.30024,21.75978 -0.66,31.24396 l -0.65411,17.24396 -3.17917,1.87575 c -1.74855,1.03167 -4.44422,2.70465 -5.9904,3.71775 l -2.81123,1.84198 0.55181,-4.9617 c 0.3035,-2.72893 2.86282,-22.9617 5.68738,-44.9617 2.82456,-22 5.58847,-43.54168 6.14203,-47.8704 0.55355,-4.32872 0.79353,-8.08333 0.53328,-8.34357 -0.26025,-0.26025 -5.68107,2.11781 -12.04627,5.28457 L 367,292.32836 l -0.003,5.08582 c -0.005,8.54352 -1.90329,72.24404 -2.57368,86.35487 l -0.6304,13.26906 -5.56158,3.98256 c -3.05888,2.19041 -5.67259,3.86934 -5.80826,3.73095 -0.13566,-0.13839 0.38298,-4.97662 1.15254,-10.75162 0.76955,-5.775 1.88063,-14.55 2.46906,-19.5 1.8704,-15.73438 2.72605,-22.52415 5.41889,-43 3.39624,-25.82437 4.74747,-37.62376 4.35281,-38.01024 -0.38418,-0.37621 -21.33563,11.62934 -22.73229,13.026 -0.89469,0.89469 -2.40419,27.77186 -4.96761,88.44964 l -0.90684,21.4654 -5.3549,4.75277 c -5.47091,4.85575 -7.12408,5.78241 -6.36255,3.56643 0.23626,-0.6875 0.88292,-5.3 1.43702,-10.25 1.28044,-11.43872 3.0641,-25.79861 7.57688,-61 1.41018,-11 2.97847,-23.375 3.48507,-27.5 0.5066,-4.125 1.22696,-9.6375 1.60081,-12.25 0.40562,-2.83447 0.29336,-4.75 -0.27837,-4.75 -0.52695,0 -6.39776,3.55758 -13.04623,7.90573 l -12.08814,7.90572 -0.55059,6.34428 c -0.30283,3.48935 -0.79534,20.96927 -1.09448,38.84427 -0.29914,17.875 -0.83708,39.37319 -1.19541,47.77376 l -0.65152,15.27377 -6.59369,4.65808 c -9.7239,6.86941 -25.45472,19.58947 -34.84369,28.17486 l -8.25,7.54391 0,13.28781 c 0,7.3083 0.15969,13.28781 0.35486,13.28781 0.19517,0 4.11225,-4.8375 8.70462,-10.75 z" />
  </g>
</svg>
